<svg xmlns="http://www.w3.org/2000/svg" viewBox="0 0 64 64">
  <defs>
    <linearGradient id="rocketBody" x1="0%" y1="0%" x2="0%" y2="100%">
      <stop offset="0" stop-color="#7dd3fc"/>
      <stop offset="1" stop-color="#1d4ed8"/>
    </linearGradient>
  </defs>
  <path d="M32 4c-6 6-10 16-10 28 0 6 1 12 3 18h14c2-6 3-12 3-18 0-12-4-22-10-28z" fill="url(#rocketBody)" stroke="#1e3a8a" stroke-width="2"/>
  <circle cx="32" cy="28" r="8" fill="#1e40af" stroke="#0f172a" stroke-width="2"/>
  <path d="M22 40l-8 10h12c-1-3-2-6-4-10z" fill="#f97316" stroke="#c2410c" stroke-width="2"/>
  <path d="M42 40l8 10H38c1-3 2-6 4-10z" fill="#f97316" stroke="#c2410c" stroke-width="2"/>
  <path d="M28 50l-4 12 8-4 8 4-4-12z" fill="#fbbf24" stroke="#b45309" stroke-width="2"/>
</svg>
